<svg height="511pt" viewBox="1 -70 511.99998 511" width="511pt" xmlns="http://www.w3.org/2000/svg"><path d="m494.09375 48.613281c-5.34375-1.753906-11.746094-3.046875-19.015625-3.046875h-438.15625c-7.269531 0-13.671875 1.292969-19.015625 3.046875-10.722656 3.523438-17.90625 13.621094-17.90625 24.910157l.0117188 239.164062c0 26.410156 21.4765622 47.894531 47.8750002 47.894531 8.265625 0 16.453125-2.175781 23.640625-6.277343 14.53125-8.261719 39.332031-18.113282 74.941406-18.113282 53.234375 0 81.878906 22.214844 84.941406 24.722656 13.421875 12.902344 34.539063 13.226563 48.351563.742188l.996093-.902344c.269532-.242187 29.65625-24.5625 84.785157-24.5625 35.601562 0 60.398437 9.851563 74.914062 18.105469 7.222657 4.113281 15.402344 6.285156 23.664063 6.285156 12.425781 0 24.222656-4.753906 33.207031-13.390625 9.460937-9.089844 14.671875-21.347656 14.671875-34.503906v-239.164062c0-11.289063-7.183594-21.386719-17.90625-24.910157zm0 0" fill="#da5b65"/><path d="m494.09375 48.613281c-5.34375-1.753906-11.746094-3.046875-19.015625-3.046875h-438.15625c-7.269531 0-13.671875 1.292969-19.015625 3.046875-.535156.175781-1.058594.382813-1.578125.589844v263.484375c0 17.410156 14.15625 31.578125 31.558594 31.578125 5.433593 0 10.828125-1.4375 15.574219-4.144531 16.242187-9.238282 43.828124-20.25 83.007812-20.25 59.480469 0 91.6875 25.40625 95.496094 28.59375l.207031.207031c7.78125 7.78125 20.441406 7.625 28.027344-.339844 4.492187-3.714843 36.640625-28.460937 95.347656-28.460937 39.167969 0 66.75 11.011718 82.984375 20.246094 4.765625 2.714843 10.15625 4.148437 15.589844 4.148437h.003906c8.1875 0 15.964844-3.140625 21.898438-8.839844 6.230468-5.988281 9.660156-14.0625 9.660156-22.738281v-263.480469c-.523438-.210937-1.050782-.414062-1.589844-.59375zm0 0" fill="#c0344a"/><path d="m465.160156 27.335938c-15.539062-10.011719-49.171875-26.835938-99.617187-26.835938-71.820313 0-109.542969 34.09375-109.542969 34.09375l-33.484375 132.335938 33.484375 166.433593s37.722656-34.09375 109.542969-34.09375c44.351562 0 75.691406 12.996094 93.183593 22.941407 7.300782 4.15625 16.351563-1.128907 16.351563-9.523438v-267.121094c0-7.363281-3.726563-14.242187-9.917969-18.230468zm0 0" fill="#d4d2d3"/><path d="m256 34.597656v298.765625s-37.714844-34.09375-109.535156-34.09375c-44.347656 0-75.699219 12.996094-93.191406 22.945313-7.289063 4.15625-16.339844-1.128906-16.339844-9.527344v-267.121094c0-7.363281 3.714844-14.242187 9.914062-18.230468 15.542969-10.011719 49.164063-26.835938 99.621094-26.835938 71.816406 0 109.53125 34.097656 109.53125 34.097656zm0 0" fill="#efedee"/><g fill="#3a484a"><path d="m309.210938 78.480469c-3.140626 0-6.09375-1.929688-7.246094-5.046875-1.480469-4.003906.5625-8.449219 4.566406-9.925782 18.191406-6.726562 38.046875-10.136718 59.011719-10.136718 20.960937 0 40.816406 3.410156 59.007812 10.132812 4 1.480469 6.046875 5.925782 4.566407 9.925782-1.480469 4.003906-5.921876 6.046874-9.925782 4.570312-16.472656-6.089844-34.519531-9.175781-53.648437-9.175781-19.132813 0-37.183594 3.085937-53.652344 9.175781-.882813.324219-1.789063.480469-2.679687.480469zm0 0"/><path d="m309.210938 121.378906c-3.140626 0-6.09375-1.929687-7.246094-5.046875-1.480469-4.003906.5625-8.449219 4.566406-9.925781 18.191406-6.726562 38.042969-10.136719 59.011719-10.136719 20.964843 0 40.816406 3.410157 59.007812 10.132813 4 1.480468 6.046875 5.925781 4.566407 9.925781-1.480469 4.003906-5.921876 6.050781-9.925782 4.570313-16.46875-6.089844-34.519531-9.175782-53.648437-9.175782-19.132813 0-37.183594 3.085938-53.652344 9.175782-.882813.324218-1.789063.480468-2.679687.480468zm0 0"/><path d="m309.210938 164.277344c-3.140626 0-6.09375-1.929688-7.246094-5.046875-1.480469-4.003907.5625-8.449219 4.566406-9.925781 18.191406-6.726563 38.046875-10.136719 59.011719-10.136719 20.964843 0 40.816406 3.410156 59.007812 10.132812 4 1.480469 6.046875 5.925781 4.566407 9.925781-1.480469 4.003907-5.921876 6.050782-9.925782 4.570313-16.46875-6.089844-34.519531-9.175781-53.648437-9.175781-19.132813 0-37.183594 3.085937-53.652344 9.175781-.882813.328125-1.789063.480469-2.679687.480469zm0 0"/><path d="m309.210938 207.175781c-3.140626 0-6.09375-1.929687-7.246094-5.046875-1.480469-4.003906.5625-8.449218 4.566406-9.925781 18.191406-6.726563 38.046875-10.136719 59.011719-10.136719 20.960937 0 40.816406 3.410156 59.007812 10.136719 4 1.476563 6.046875 5.921875 4.566407 9.925781-1.480469 4-5.921876 6.046875-9.925782 4.566406-16.472656-6.089843-34.519531-9.175781-53.648437-9.175781-19.132813 0-37.183594 3.085938-53.652344 9.175781-.882813.328126-1.789063.480469-2.679687.480469zm0 0"/><path d="m309.210938 250.074219c-3.140626 0-6.09375-1.929688-7.246094-5.046875-1.480469-4.003906.5625-8.445313 4.566406-9.925782 18.191406-6.726562 38.042969-10.136718 59.011719-10.136718 20.964843 0 40.816406 3.410156 59.007812 10.136718 4 1.476563 6.046875 5.921876 4.566407 9.925782-1.480469 4-5.921876 6.046875-9.925782 4.566406-16.46875-6.089844-34.519531-9.175781-53.648437-9.175781-19.132813 0-37.183594 3.089843-53.652344 9.175781-.882813.328125-1.789063.480469-2.679687.480469zm0 0"/><path d="m90.136719 164.277344c-3.140625 0-6.09375-1.929688-7.246094-5.046875-1.480469-4.003907.5625-8.449219 4.566406-9.925781 18.191407-6.726563 38.046875-10.136719 59.011719-10.136719s40.816406 3.410156 59.007812 10.132812c4 1.480469 6.046876 5.925781 4.566407 9.925781-1.480469 4.003907-5.925781 6.050782-9.925781 4.570313-16.46875-6.089844-34.519532-9.175781-53.648438-9.175781-19.132812 0-37.183594 3.085937-53.652344 9.175781-.882812.328125-1.789062.480469-2.679687.480469zm0 0"/><path d="m90.136719 207.175781c-3.140625 0-6.09375-1.929687-7.246094-5.046875-1.480469-4.003906.5625-8.449218 4.566406-9.925781 18.191407-6.726563 38.046875-10.136719 59.011719-10.136719s40.816406 3.410156 59.007812 10.136719c4 1.476563 6.046876 5.921875 4.566407 9.925781-1.480469 4-5.921875 6.046875-9.925781 4.566406-16.46875-6.089843-34.519532-9.175781-53.648438-9.175781-19.132812 0-37.183594 3.085938-53.652344 9.175781-.882812.328126-1.789062.480469-2.679687.480469zm0 0"/><path d="m90.136719 250.074219c-3.140625 0-6.09375-1.929688-7.246094-5.046875-1.480469-4.003906.5625-8.445313 4.566406-9.925782 18.191407-6.726562 38.042969-10.136718 59.011719-10.136718 20.964844 0 40.816406 3.410156 59.007812 10.136718 4 1.476563 6.046876 5.921876 4.566407 9.925782-1.480469 4-5.921875 6.046875-9.925781 4.566406-16.46875-6.089844-34.519532-9.175781-53.648438-9.175781-19.132812 0-37.183594 3.089843-53.652344 9.175781-.882812.328125-1.789062.480469-2.679687.480469zm0 0"/><path d="m85.488281 92.636719c-4.265625 0-7.726562-3.457031-7.726562-7.726563v-11.035156c0-4.265625 3.460937-7.726562 7.726562-7.726562 4.269531 0 7.726563 3.460937 7.726563 7.726562v11.035156c0 4.269532-3.457032 7.726563-7.726563 7.726563zm0 0"/><path d="m207.441406 92.636719c-4.265625 0-7.726562-3.457031-7.726562-7.726563v-11.035156c0-4.265625 3.460937-7.726562 7.726562-7.726562 4.269532 0 7.726563 3.460937 7.726563 7.726562v11.035156c0 4.269532-3.457031 7.726563-7.726563 7.726563zm0 0"/><path d="m146.464844 98.527344c-8.09375 0-15.699219-3.390625-20.867188-9.300782-2.808594-3.210937-2.480468-8.09375.734375-10.902343 3.210938-2.804688 8.09375-2.480469 10.902344.734375 2.230469 2.550781 5.597656 4.015625 9.230469 4.015625 3.636718 0 7.003906-1.464844 9.234375-4.015625 2.808593-3.214844 7.6875-3.539063 10.902343-.734375 3.210938 2.808593 3.539063 7.691406.730469 10.902343-5.164062 5.910157-12.769531 9.300782-20.867187 9.300782zm0 0"/></g></svg>